<?xml version="1.0" standalone="no"?><!DOCTYPE svg PUBLIC "-//W3C//DTD SVG 1.1//EN" "http://www.w3.org/Graphics/SVG/1.1/DTD/svg11.dtd"><svg t="1598853785006" class="icon" viewBox="0 0 1024 1024" version="1.1" xmlns="http://www.w3.org/2000/svg" p-id="2884" xmlns:xlink="http://www.w3.org/1999/xlink" width="50" height="50"><defs><style type="text/css"></style></defs><path d="M784.99 83.33c1.55 0 2.33 0.78 2.33 2.33V145c0 1.55-0.78 2.33-2.33 2.33H237.61c-1.55 0-2.33-0.78-2.33-2.33V85.66c0-1.55 0.78-2.33 2.33-2.33h547.38zM873 201.7c1.55 0 2.33 0.78 2.33 2.33v59.34c0 1.55-0.78 2.33-2.33 2.33H149.62c-1.55 0-2.33-0.78-2.33-2.33v-59.34c0-1.55 0.78-2.33 2.33-2.33H873zM587.93 502.65c25.38 0 45.95 20.57 45.95 45.95 0 3.14-0.31 6.2-0.91 9.16l106.72 106.72 3.3-0.17c23.26 0 42.49 17.29 45.53 39.71l0.42 6.24c0 25.38-20.57 45.95-45.95 45.95-23.26 0-42.49-17.29-45.53-39.71l-0.3-3.98-107.94-107.99-109.01 109.2a45.919 45.919 0 0 1-17.1 32.4l-5.75 3.93a45.941 45.941 0 0 1-45.95 0 45.943 45.943 0 0 1-22.97-39.79l0.17-4.01-104.94-104.97c-9.25 0.82-18.7-1.18-27.02-5.98a45.943 45.943 0 0 1-22.97-39.79 45.94 45.94 0 0 1 22.97-39.79 45.941 45.941 0 0 1 45.95 0 45.97 45.97 0 0 1 22.45 32.85l0.27 3.89 112.16 111.97 1.22 0.1 104.67-104.71c-0.9-3.59-1.38-7.34-1.38-11.21-0.01-25.39 20.56-45.97 45.94-45.97z m-45.97-185.23c17.67 0 32 14.33 32 32s-14.33 32-32 32H175.35c-26.51 0.03-47.99 21.51-48.01 48.01v400.02c0.03 26.51 21.51 47.99 48.01 48.01h671.99c26.5-0.03 47.97-21.51 48-48.01V429.43c-0.03-26.5-21.5-47.98-48-48.01H697c-17.67 0-32-14.33-32-32s14.33-32 32-32h150.33c61.83 0.07 111.94 50.18 112 112.01v400.02c-0.06 61.83-50.17 111.94-112 112.01H175.35c-61.83-0.07-111.94-50.18-112.01-112.01V429.43c0.07-61.83 50.18-111.94 112.01-112.01h366.61z" p-id="2885"></path></svg>