<?xml version="1.0" standalone="no"?><!DOCTYPE svg PUBLIC "-//W3C//DTD SVG 1.1//EN" "http://www.w3.org/Graphics/SVG/1.1/DTD/svg11.dtd"><svg t="1598853771536" class="icon" viewBox="0 0 1024 1024" version="1.1" xmlns="http://www.w3.org/2000/svg" p-id="2604" xmlns:xlink="http://www.w3.org/1999/xlink" width="50" height="50"><defs><style type="text/css"></style></defs><path d="M746.92 896.54c-0.13 0.13-0.69 0.13-1.28-0.43L616.57 758.23a32.203 32.203 0 0 0 14.47-7.92l49.32-49.32a32.873 32.873 0 0 0 8.51-31.76 32.868 32.868 0 0 0-23.25-23.25c-11.35-3.04-23.45 0.2-31.76 8.51l-49.32 49.32a32.583 32.583 0 0 0-7.5 12.23l-41-43.83L682.4 533.15l206.11 220.21c0.49 0.53 0.49 1.05 0.36 1.18l-141.95 142z m-614.84-17.13a1.64 1.64 0 0 1-2.07-1.97l29.79-127.16c1.02-4.27 3.03-8.19 5.46-11.8a32.67 32.67 0 0 0 6.94 10.42l90.72 90.72a35.98 35.98 0 0 1-8.22 3.65l-122.62 36.14z m147.44-481.3c8.22-0.13 16.44-3.26 22.72-9.54l49.32-49.32a32.873 32.873 0 0 0 8.51-31.76 32.868 32.868 0 0 0-23.25-23.25c-11.35-3.04-23.45 0.2-31.76 8.51l-49.32 49.32a32.53 32.53 0 0 0-9.17 20.81l-83.88-89.64c-0.53-0.53-0.53-1.05-0.36-1.18l141.99-142.02c0.13-0.13 0.69-0.13 1.28 0.43L495.07 332.9 348.71 471.96l-69.19-73.85z m503.2-247.77c14.22-13.5 36.61-13.21 50.47 0.66l49.75 49.75c14.14 14.14 14.14 37.03-0.66 51.79l-66.23 62.9c-1.31-2.14-2.3-4.41-4.18-6.28l-95.69-95.69 66.54-63.13zM311.29 795.03l-92.6-92.6a32.5 32.5 0 0 0-10.06-6.68l459.93-436.94 96.87 96.87c1.45 1.45 3.26 2.14 4.9 3.26L311.29 795.03z m418.82-307.19l199.37-189.4c39.81-39.81 39.81-104.35 0-144.16l-49.75-49.75c-39.09-39.08-102.21-39.88-142.28-1.81l-194.73 184.9L353.58 85.56l-1.55-1.61a66.608 66.608 0 0 0-47.04-19.72 66.61 66.61 0 0 0-47.2 19.33L115.8 225.54c-25.32 25.51-25.83 66.5-1.15 92.63L301 517.24 124.81 684.61a102.044 102.044 0 0 0-29.04 50.64L65.99 862.41c-5.46 23.37 1.9 47.87 19.33 64.36s42.32 22.47 65.34 15.71l122.59-36.1c15.5-4.58 29.7-12.76 41.43-23.87L488.4 717.47 697.62 941l1.55 1.61a66.608 66.608 0 0 0 47.04 19.72 66.61 66.61 0 0 0 47.2-19.33L935.4 801.01c25.32-25.51 25.83-66.5 1.15-92.63L730.11 487.84z" p-id="2605"></path></svg>