<?xml version="1.0" standalone="no"?><!DOCTYPE svg PUBLIC "-//W3C//DTD SVG 1.1//EN" "http://www.w3.org/Graphics/SVG/1.1/DTD/svg11.dtd"><svg t="1610516645630" class="icon" viewBox="0 0 1024 1024" version="1.1" xmlns="http://www.w3.org/2000/svg" p-id="2631" width="50" height="50" xmlns:xlink="http://www.w3.org/1999/xlink"><defs><style type="text/css"></style></defs><path d="M330.67 329.3c-30 0-54.31 24.32-54.31 54.31 0 30 24.32 54.31 54.31 54.31s54.31-24.32 54.31-54.31c0-29.99-24.32-54.31-54.31-54.31z m0-63.89c65.29 0 118.21 52.93 118.21 118.21s-52.93 118.21-118.21 118.21c-65.29 0-118.21-52.92-118.21-118.21s52.92-118.21 118.21-118.21z m500.87-106.06H192.56c-32.77 0-59.78 24.67-63.47 56.45l-0.43 7.45-0.01 394.76c54.39 39.1 116.26 67.18 165.74 67.1 62.4-0.1 130.31-38.02 181.71-98.49l5.82-7.44c17.11-22.81 55.57-78.87 56.31-80.15 61.23-85.98 116.29-130.52 191.28-129.87 60.65 0.52 116.05 26.41 166 76.24l-0.06-222.15c0-32.77-24.67-59.78-56.45-63.47l-7.46-0.43z m-102.59 273.7c-44.66-0.38-83.47 28.72-129.66 90.65l-14.55 20.21-27.95 40.89c-13.32 19.46-22.64 32.19-32 43.21-62.6 73.65-147.17 120.87-230.29 121.01-53.45 0.08-111.56-21.51-165.8-54.33l-0.04 103.65c0 32.77 24.67 59.78 56.45 63.47l7.45 0.43h638.98c32.77 0 59.78-24.67 63.47-56.45l0.43-7.45V545.87l-1.07-1.66c-51.49-74.78-106.46-110.66-165.42-111.16z m102.59-337.6c70.58 0 127.8 57.22 127.8 127.8v575.08c0 70.58-57.22 127.8-127.8 127.8H192.56c-70.58 0-127.8-57.22-127.8-127.8V223.24c0-70.58 57.22-127.8 127.8-127.8h638.98z" p-id="2632"></path></svg>