<?xml version="1.0" standalone="no"?><!DOCTYPE svg PUBLIC "-//W3C//DTD SVG 1.1//EN" "http://www.w3.org/Graphics/SVG/1.1/DTD/svg11.dtd"><svg t="1598860466174" class="icon" viewBox="0 0 1024 1024" version="1.1" xmlns="http://www.w3.org/2000/svg" p-id="3734" xmlns:xlink="http://www.w3.org/1999/xlink" width="50" height="50"><defs><style type="text/css"></style></defs><path d="M395.08 490.08c-70.96 0-128.54-59.88-128.54-133.66s57.36-133.74 128.47-133.74 128.54 59.88 128.54 133.66-57.51 133.74-128.54 133.74h0.07z m125.26 28.18c47.54-40.28 74.8-99.54 74.47-161.85 0-114.8-89.44-207.9-199.81-207.9s-199.73 93.11-199.73 207.9c-0.33 62.31 26.93 121.57 74.47 161.85-120.6 51.4-205.53 174.68-205.53 318.57v6.11c0.38 19.46 16.28 35.03 35.75 34.98 9.56 0 18.72-3.84 25.41-10.67a35.616 35.616 0 0 0 10.18-25.61v-4.81c0-149.09 116.25-270 259.69-270s259.69 120.91 259.69 270v4.81a35.575 35.575 0 0 0 10.18 25.61 35.603 35.603 0 0 0 25.41 10.67c19.4 0 35.25-15.5 35.67-34.91v-6.11c-0.31-143.96-85.32-267.23-205.85-318.64z" p-id="3735"></path><path d="M627.2 148.52c110.29 0 199.65 93.03 199.65 207.83 0 65.46-29.02 106.93-74.47 145.12 120.6 51.4 205.46 191.48 205.46 335.45v6.11c-0.37 19.42-16.25 34.95-35.67 34.91a35.6 35.6 0 0 1-35.52-36.21v-4.81c0-149.17-98.45-292.15-241.74-292.15h0.84c-21.2 0-38.38-17.18-38.38-38.38 0-21.2 17.18-38.38 38.38-38.38h-1.07c70.96 0 110.75-37.73 110.75-111.59 0-73.86-57.28-133.74-128.24-133.74-5.85 0.08-11.68 0.7-17.41 1.83a31.876 31.876 0 0 1-24-5.52 31.823 31.823 0 0 1-12.89-20.98v-2.44c-2.69-22.18 12.74-42.48 34.83-45.83 6.46-0.83 12.97-1.24 19.48-1.22z" p-id="3736"></path></svg>