<?xml version="1.0" standalone="no"?><!DOCTYPE svg PUBLIC "-//W3C//DTD SVG 1.1//EN" "http://www.w3.org/Graphics/SVG/1.1/DTD/svg11.dtd"><svg t="1598853559511" class="icon" viewBox="0 0 1024 1024" version="1.1" xmlns="http://www.w3.org/2000/svg" p-id="2323" xmlns:xlink="http://www.w3.org/1999/xlink" width="50" height="50"><defs><style type="text/css"></style></defs><path d="M541.75 841.12v-67.24c0-15.93-12.91-28.84-28.84-28.84s-28.84 12.91-28.84 28.84v67.24c-159.06-13.83-286.17-140.94-300-300h70.26c15.93 0 28.84-12.91 28.84-28.84s-12.91-28.84-28.84-28.84h-70.26c13.83-159.02 140.86-286.1 299.86-299.99v65.05c0 15.93 12.91 28.84 28.84 28.84s28.84-12.91 28.84-28.84v-65.07c159.13 13.77 286.3 140.9 300.14 300.01h-70.82c-15.93 0-28.84 12.91-28.84 28.84s12.91 28.84 28.84 28.84h70.82c-13.83 159.06-140.94 286.17-300 300zM930.5 483.44h-30.85c-3.08-42.16-12.94-83.12-29.44-122.12-19.53-46.18-47.49-87.65-83.09-123.25-35.6-35.6-77.07-63.56-123.25-83.09-39.03-16.51-80.04-26.37-122.25-29.45V94.7c0-15.93-12.91-28.84-28.84-28.84s-28.84 12.91-28.84 28.84v30.85c-42.11 3.09-83.03 12.95-121.98 29.43-46.18 19.53-87.65 47.49-123.25 83.09-35.6 35.6-63.56 77.07-83.09 123.25-16.49 38.99-26.35 79.95-29.43 122.12H94.77c-15.93 0-28.84 12.91-28.84 28.84s12.91 28.84 28.84 28.84h31.41c3.08 42.16 12.94 83.12 29.44 122.12 19.53 46.18 47.49 87.65 83.09 123.25 35.6 35.6 77.07 63.56 123.25 83.09 38.99 16.49 79.95 26.35 122.12 29.44v29.62c0 15.93 12.91 28.84 28.84 28.84s28.84-12.91 28.84-28.84v-29.62c42.16-3.08 83.12-12.94 122.12-29.44 46.18-19.53 87.65-47.49 123.25-83.09 35.6-35.6 63.56-77.07 83.09-123.25 16.49-38.99 26.35-79.95 29.44-122.12h30.85c15.93 0 28.84-12.91 28.84-28.84-0.02-15.92-12.93-28.84-28.85-28.84zM512.91 581.5c-38.17 0-69.22-31.05-69.22-69.22s31.05-69.22 69.22-69.22 69.22 31.05 69.22 69.22-31.05 69.22-69.22 69.22z m0-196.11c-69.97 0-126.89 56.92-126.89 126.89s56.92 126.89 126.89 126.89S639.8 582.25 639.8 512.28s-56.92-126.89-126.89-126.89z" p-id="2324"></path></svg>