<?xml version="1.0" standalone="no"?><!DOCTYPE svg PUBLIC "-//W3C//DTD SVG 1.1//EN" "http://www.w3.org/Graphics/SVG/1.1/DTD/svg11.dtd"><svg t="1598853811766" class="icon" viewBox="0 0 1024 1024" version="1.1" xmlns="http://www.w3.org/2000/svg" p-id="3164" xmlns:xlink="http://www.w3.org/1999/xlink" width="50" height="50"><defs><style type="text/css"></style></defs><path d="M328.06 304.57c0 95.65 79.76 173.53 177.79 173.53s177.79-77.83 177.79-173.53-79.76-173.53-177.79-173.53-177.79 77.88-177.79 173.53zM505.8 545.28c-135.06 0-244.96-108.01-244.96-240.7s109.9-240.7 244.96-240.7 244.96 107.97 244.96 240.7-109.9 240.7-244.96 240.7z m-79.18 69.05c-132.06 0-239.54 104.97-239.54 233.99v17.15c0 26.96 161.75 26.96 239.54 26.96H602.8c59.2 0 239.41 0 239.41-26.96v-17.15c0-129.02-107.39-233.99-239.41-233.99H426.62zM602.8 959.56H426.62c-171.34 0-306.71 0-306.71-94.13v-17.11c0-166.05 137.57-301.16 306.71-301.16H602.8c169.01 0 306.58 135.11 306.58 301.16v17.15c-0.05 94.09-142.1 94.09-306.58 94.09z" p-id="3165"></path></svg>