<?xml version="1.0" standalone="no"?><!DOCTYPE svg PUBLIC "-//W3C//DTD SVG 1.1//EN" "http://www.w3.org/Graphics/SVG/1.1/DTD/svg11.dtd"><svg t="1598853681590" class="icon" viewBox="0 0 1024 1024" version="1.1" xmlns="http://www.w3.org/2000/svg" p-id="2463" xmlns:xlink="http://www.w3.org/1999/xlink" width="50" height="50"><defs><style type="text/css"></style></defs><path d="M825.75 894.53H204.33V128.59H639.9v144.52c0 17.96 14.56 32.52 32.52 32.52h153.33v588.9zM704.93 128.59h1.59c63.03 0.02 115.15 49.09 118.97 112H704.93v-112z m1.59-65.03H193.49c-29.93 0-54.19 24.26-54.19 54.19v787.61c0 29.93 24.26 54.19 54.19 54.19h643.1c29.93 0 54.19-24.26 54.19-54.19V247.82c-0.12-101.72-82.55-184.14-184.26-184.26z" p-id="2464"></path><path d="M318.21 407.11c0 8.62 3.43 16.89 9.52 22.99 6.1 6.1 14.37 9.52 22.99 9.52h326.9c17.96 0 32.52-14.56 32.52-32.52s-14.56-32.52-32.52-32.52h-326.9c-17.96 0.01-32.51 14.57-32.51 32.53z m196.83 300.2H350.72c-17.96 0-32.52 14.56-32.52 32.52s14.56 32.52 32.52 32.52h164.31c17.96 0 32.52-14.56 32.52-32.52 0-17.97-14.55-32.52-32.51-32.52z m162.58-167.25h-326.9c-17.96 0-32.52 14.56-32.52 32.52s14.56 32.52 32.52 32.52h326.9c17.96 0 32.52-14.56 32.52-32.52s-14.56-32.52-32.52-32.52z" p-id="2465"></path></svg>