<?xml version="1.0" standalone="no"?><!DOCTYPE svg PUBLIC "-//W3C//DTD SVG 1.1//EN" "http://www.w3.org/Graphics/SVG/1.1/DTD/svg11.dtd"><svg t="1598853780245" class="icon" viewBox="0 0 1024 1024" version="1.1" xmlns="http://www.w3.org/2000/svg" p-id="2744" xmlns:xlink="http://www.w3.org/1999/xlink" width="50" height="50"><defs><style type="text/css"></style></defs><path d="M281.83 925.32c-77.54 0-140.5-62.97-140.5-140.5V352.13c0-2.08-1.56-3.64-3.64-3.64h-37.21c-18.47 0-33.3-13.79-33.3-30.7V196.8c0-55.16 48.13-99.91 107.2-99.91h525.06c59.06 0 107.2 48.13 107.2 107.2v447.52c0 2.08 1.56 3.64 3.64 3.64h118.38a33.2 33.2 0 0 1 33.3 33.3v129.31c0 59.06-48.13 107.2-107.2 107.2H281.83v0.26z m528.7-210.75c-2.08 0-3.64 1.56-3.64 3.64v99.91c0 26.54 21.6 48.13 48.13 48.13 26.54 0 48.13-21.6 48.13-48.13v-99.91c0-2.08-1.56-3.64-3.64-3.64h-88.98z m-606.5-366.08c-2.08 0-3.64 1.56-3.64 3.64v432.69c0 44.75 36.43 81.44 81.44 81.44h471.46c1.3 0 2.34-0.52 3.12-1.56s0.78-2.34 0.26-3.38c-5.98-13.53-8.85-28.1-8.85-42.93v-614.3c0-26.54-21.6-48.13-48.13-48.13s-48.13 21.6-48.13 48.13v113.44c0 16.91-14.83 30.7-33.3 30.7H204.03v0.26z m-29.4-192.28c-26.54 0-48.13 18.21-48.13 40.59v88.72c0 2.08 1.56 3.64 3.64 3.64h458.45c2.08 0 3.64-1.56 3.64-3.64v-81.44c0-14.83 3.12-29.4 8.85-42.93 0.52-1.04 0.26-2.34-0.26-3.38-0.78-1.04-1.82-1.56-3.12-1.56H174.63z m136.6 560.18c-16.39 0-29.66-13.27-29.66-29.66s13.27-29.66 29.66-29.66h325.49c16.39 0 29.66 13.27 29.66 29.66s-13.27 29.66-29.66 29.66H311.23z m0-158.97c-16.39 0-29.66-13.27-29.66-29.66s13.27-29.66 29.66-29.66h325.49c16.39 0 29.66 13.27 29.66 29.66s-13.27 29.66-29.66 29.66H311.23z" p-id="2745"></path></svg>