<?xml version="1.0" standalone="no"?><!DOCTYPE svg PUBLIC "-//W3C//DTD SVG 1.1//EN" "http://www.w3.org/Graphics/SVG/1.1/DTD/svg11.dtd"><svg t="1598860442137" class="icon" viewBox="0 0 1024 1024" version="1.1" xmlns="http://www.w3.org/2000/svg" p-id="3594" xmlns:xlink="http://www.w3.org/1999/xlink" width="50" height="50"><defs><style type="text/css"></style></defs><path d="M211.73 679.72h207.76c15.46 0 27.98 12.53 27.98 27.98s-12.53 27.98-27.98 27.98H211.73c-15.46 0-27.98-12.53-27.98-27.98s12.52-27.98 27.98-27.98z m0-167.9h263.72c15.46 0 27.98 12.53 27.98 27.98s-12.53 27.98-27.98 27.98H211.73c-15.46 0-27.98-12.53-27.98-27.98s12.52-27.98 27.98-27.98z m0-167.9h421.49c15.46 0 27.98 12.53 27.98 27.98 0 15.46-12.53 27.98-27.98 27.98H211.73c-15.46 0-27.98-12.53-27.98-27.98-0.01-15.45 12.52-27.98 27.98-27.98z m523.99 559.67c92.73 0 167.9-75.17 167.9-167.9s-75.17-167.9-167.9-167.9-167.9 75.17-167.9 167.9 75.17 167.9 167.9 167.9z m27.98-167.9h27.98c15.46 0 27.98 12.53 27.98 27.98 0 15.46-12.53 27.98-27.98 27.98h-55.97c-15.46 0-27.98-12.53-27.98-27.98V651.74c0-15.46 12.53-27.98 27.98-27.98 15.46 0 27.98 12.53 27.98 27.98v83.95zM567.82 176.02H287.99V204c0 15.46-12.53 27.98-27.98 27.98s-27.98-12.53-27.98-27.98v-27.98h-65.29c-25.76 0-46.64 20.88-46.64 46.64v578.32c0 25.76 20.88 46.64 46.64 46.64H541.8c-19.05-32.93-29.95-71.16-29.95-111.93 0-123.64 100.23-223.87 223.87-223.87V222.66c0-25.76-20.88-46.64-46.64-46.64h-65.29V204c0 15.46-12.53 27.98-27.98 27.98s-27.98-12.53-27.98-27.98v-27.98z m0-55.96V92.07c0-15.46 12.53-27.98 27.98-27.98s27.98 12.53 27.98 27.98v27.98h74.62c51.52 0 93.28 41.76 93.28 93.28v305.54c96.56 24.85 167.9 112.5 167.9 216.81 0 123.64-100.23 223.87-223.87 223.87-56.78 0-108.61-21.13-148.08-55.97H157.4c-51.52 0-93.28-41.76-93.28-93.28V213.34c0-51.51 41.76-93.28 93.28-93.28h74.62V92.07c0-15.46 12.53-27.98 27.98-27.98s27.98 12.53 27.98 27.98v27.98h279.84z" p-id="3595"></path></svg>