<?xml version="1.0" standalone="no"?><!DOCTYPE svg PUBLIC "-//W3C//DTD SVG 1.1//EN" "http://www.w3.org/Graphics/SVG/1.1/DTD/svg11.dtd"><svg t="1610523134449" class="icon" viewBox="0 0 1024 1024" version="1.1" xmlns="http://www.w3.org/2000/svg" p-id="2631" width="50" height="50" xmlns:xlink="http://www.w3.org/1999/xlink"><defs><style type="text/css"></style></defs><path d="M600.28 284.47c17.74 0 32.11 14.38 32.11 32.11 0 15.76-11.36 28.88-26.34 31.6l-5.77 0.52H286.27c-17.74 0-32.11-14.38-32.11-32.11 0-15.77 11.36-28.88 26.34-31.6l5.77-0.52h314.01zM478.95 477.15c17.74 0 32.11 14.38 32.11 32.11 0 15.77-11.36 28.88-26.34 31.6l-5.77 0.52H286.27c-17.74 0-32.11-14.38-32.11-32.11 0-15.77 11.36-28.88 26.34-31.6l5.77-0.52h192.68z m219.49 13.55c-28.38 0-51.38 23-51.38 51.38s23 51.38 51.38 51.38c28.38 0 51.38-23 51.38-51.38s-23-51.38-51.38-51.38z m164.55 297.43H527.77c-15.77 0-28.88 11.36-31.6 26.34l-0.52 5.77-0.06 74.89h399.49l0.03-74.89c0-13.79-8.7-25.56-20.91-30.1l-5.43-1.49-5.78-0.52z m-214-724.18c85.13 0 154.79 66.25 160.22 150.01l0.34 10.56v104.25c0 17.74-14.38 32.11-32.11 32.11-15.77 0-28.88-11.36-31.6-26.34l-0.52-5.77V224.51c0-50.08-38.21-91.23-87.06-95.9l-9.28-0.44H223.26c-50.08 0-91.23 38.21-95.9 87.06l-0.44 9.28v537.8c0 50.08 38.21 91.23 87.06 95.9l9.28 0.44h101.66c17.74 0 32.11 14.38 32.11 32.11 0 15.77-11.36 28.88-26.34 31.6l-5.77 0.52H223.26c-85.13 0-154.79-66.25-160.22-150.01l-0.34-10.56v-537.8c0-85.13 66.25-154.79 150.01-160.22l10.56-0.34h425.72z m49.45 362.52c63.85 0 115.61 51.76 115.61 115.61 0 54.27-37.4 99.81-87.83 112.25l-0.06 69.51 136.83 0.06c50.08 0 91.23 38.21 95.9 87.06l0.44 9.28v107.04c0 15.77-11.36 28.88-26.34 31.6l-5.77 0.52H463.54c-15.77 0-28.88-11.36-31.6-26.34l-0.52-5.77V820.24c0-50.08 38.21-91.23 87.06-95.9l9.28-0.44 134.17-0.06 0.03-72.03c-45.97-15.27-79.13-58.63-79.13-109.74 0-63.84 51.76-115.6 115.61-115.6z" p-id="2632"></path></svg>