<?xml version="1.0" standalone="no"?><!DOCTYPE svg PUBLIC "-//W3C//DTD SVG 1.1//EN" "http://www.w3.org/Graphics/SVG/1.1/DTD/svg11.dtd"><svg t="1598853789247" class="icon" viewBox="0 0 1024 1024" version="1.1" xmlns="http://www.w3.org/2000/svg" p-id="3024" xmlns:xlink="http://www.w3.org/1999/xlink" width="50" height="50"><defs><style type="text/css"></style></defs><path d="M636.3 956.09c-24.76 0-49.07-11.15-65.13-29.74-16.36-18.88-46.09-40.89-60-40.89-13.68 0-43.86 21.93-59.7 40.15a86.96 86.96 0 0 1-64.68 29.07c-12.19 0-23.64-2.45-34.12-7.36l-3.79-2.01-105.05-62.3a86.85 86.85 0 0 1-32.19-48.32 91.811 91.811 0 0 1 3.87-58.73c2.6-6.39 6.25-19.26 6.25-28.1 0-41.26-31.97-74.94-71.15-74.94h-4.24c-34.2 0-62.38-28.4-69.96-70.63l-0.22-1.26a582.798 582.798 0 0 1-8.92-90.55c0-41.11 9.07-91.3 9.14-91.74 7.66-42.53 35.69-70.78 69.88-70.78h4.31c39.18 0 71.15-33.6 71.15-74.94 0-10.48-5.06-24.83-6.39-28.1-15.71-38.16-3.96-82.12 28.7-107.35l4.09-2.82L358.7 71.08c10.63-4.76 21.86-7.14 33.46-7.14 24.61 0 48.18 10.33 64.38 28.25 16.13 17.84 45.35 38.44 58.81 38.44 13.31 0 42.38-20.22 58.44-37.62 16.13-17.62 39.4-27.81 63.86-27.81 11.97 0 23.42 2.45 33.98 7.29l4.09 2.16 107.06 63.12c15.61 11.38 26.99 28.62 32.19 48.32 5.2 19.55 3.72 40.52-3.87 58.73-2.53 6.24-6.25 19.48-6.25 28.18 0 41.34 31.97 74.94 71.15 74.94h4.31c34.2 0 62.3 28.4 69.81 70.78l0.22 0.97c3.42 19.92 9 58.21 9 90.7 0 41.71-9.07 91.44-9.22 91.97-7.58 42.38-35.76 70.63-70.03 70.63h-4.01c-39.18 0-71.15 33.68-71.15 74.94 0 8.7 3.72 21.56 6.32 28.25 7.73 17.92 9 38.88 3.79 58.66-5.2 19.7-16.65 36.88-32.34 48.4l-3.79 2.83-108.77 62.9a83.558 83.558 0 0 1-33.84 7.12z m-13.16-80.74l0.74 0.67c3.64 4.31 11.9 6.54 17.55 4.16l101.18-58.73c3.94-3.12 5.65-10.19 3.57-15.17a169.723 169.723 0 0 1-12.34-58.36c0-82.67 63.79-149.95 142.22-149.95h1.04c1.66-3 2.77-6.27 3.27-9.66 4.53-25.67 7.19-51.64 7.95-77.69-0.71-26.08-3.37-52.08-7.95-77.77-0.55-3.38-1.65-6.65-3.27-9.66h-1.04c-78.43 0-142.22-67.28-142.22-149.95 0-29.29 12.19-58.06 12.34-58.36 1.97-5.45 0.41-11.55-3.94-15.39l-99.55-58.21c-6.23-1.93-13.01-0.3-17.69 4.24-9.59 10.19-59.33 60.44-109.59 60.44-52.64 0-104.38-55.24-110.18-61.56a18.801 18.801 0 0 0-18.29-4.31l-102.97 59.7c-3.87 2.97-5.58 9.96-3.57 14.94 0.07 0.07 12.34 29 12.34 58.29 0 82.67-63.79 149.95-142.22 149.95h-1.04a30.922 30.922 0 0 0-3.27 9.66c-2.45 14.5-8.03 49.81-8.03 77.77 0 26.1 5.2 62.38 8.03 77.84 0.97 5.2 2.38 8.18 3.27 9.66h1.04c78.43 0 142.22 67.28 142.22 149.95 0 25.57-9.37 50.93-12.27 57.99a14.122 14.122 0 0 0 3.72 15.69L381.74 879c0.97 0.45 2.75 0.74 4.83 0.74 4.66 0.06 9.15-1.8 12.42-5.13l0.74-0.74c13.68-14.87 62.23-63.34 111.3-63.34 53.31-0.01 106.31 58.21 112.11 64.82zM513.26 683.84c-90.33 0-163.78-77.91-163.78-173.67 0-95.68 73.45-173.67 163.78-173.67 90.26 0 163.71 77.99 163.71 173.67 0 95.75-73.45 173.67-163.71 173.67z m0-272.4c-51.15 0-92.71 44.24-92.71 98.58 0 54.42 41.63 98.73 92.71 98.73s92.63-44.31 92.63-98.73c0.01-54.27-41.63-98.58-92.63-98.58z" p-id="3025"></path></svg>