<?xml version="1.0" standalone="no"?><!DOCTYPE svg PUBLIC "-//W3C//DTD SVG 1.1//EN" "http://www.w3.org/Graphics/SVG/1.1/DTD/svg11.dtd"><svg t="1598854430880" class="icon" viewBox="0 0 1024 1024" version="1.1" xmlns="http://www.w3.org/2000/svg" p-id="3584" xmlns:xlink="http://www.w3.org/1999/xlink" width="50" height="50"><defs><style type="text/css"></style></defs><path d="M104.47 692.97h323.25c-33.99-24.66-63.75-54.53-87.99-88.58H104.47c-22.72 0-41.14 18.05-41.14 40.45v7.51c0 22.4 18.42 40.62 41.14 40.62m724.97 10.84c-7.72-19.99-30.79-30.21-51.49-22.66l-9.71 3.54c-20.87 7.28-31.4 29.55-23.64 49.35l70.02 180.86c7.79 19.93 30.76 30.08 51.46 22.64l9.77-3.52c20.89-7.28 31.43-29.61 23.64-49.43l-70.07-180.78h0.02zM661.82 840.59l-557.35 0.04c-22.72 0-41.14 18.09-41.14 40.47v7.51c0 22.42 18.41 40.67 41.14 40.67h557.35c22.7 0 41.09-18.16 41.09-40.56v-7.6c0.05-22.38-18.37-40.54-41.09-40.53M357.98 432.87c4.97 29.91 14.51 59.68 29.23 88.12 16.06 30.98 37.1 57.89 61.36 80.52 32.79 30.68 71.63 53.59 113.63 67.16 74.1 24.05 157.37 19.99 232.2-17.69 148.77-75.14 207.72-255.15 131.77-402.09C861.3 123.87 719.71 63.41 587.13 94.49c-23.17 5.4-46.04 13.29-68.19 24.45-30.51 15.4-56.99 35.33-79.56 58.35-46.13 47.04-75.08 107.4-83.06 171.2-3.5 27.81-2.96 56.19 1.66 84.38m298.63-274.14c126.67 0 229.31 101.34 229.31 226.37 0 124.99-102.67 226.3-229.31 226.3-126.61 0-229.23-101.3-229.23-226.3 0.03-125 102.65-226.37 229.23-226.37M107.44 361.21c-24.37 0-44.08 19.54-44.08 43.5v8.19c0 24.02 19.74 43.44 44.08 43.44H276.4c-4.41-23.11-6.96-46.9-6.96-71.28 0-8 0.68-15.89 1.24-23.85H107.44z m-2.97-162.33h214.15c18.63-32.88 42.03-62.69 69.25-88.65h-283.4c-22.72 0-41.14 18.05-41.14 40.45v7.55c0.01 22.44 18.43 40.65 41.14 40.65z" p-id="3585"></path></svg>