<?xml version="1.0" standalone="no"?><!DOCTYPE svg PUBLIC "-//W3C//DTD SVG 1.1//EN" "http://www.w3.org/Graphics/SVG/1.1/DTD/svg11.dtd"><svg t="1598853339050" class="icon" viewBox="0 0 1024 1024" version="1.1" xmlns="http://www.w3.org/2000/svg" p-id="2183" xmlns:xlink="http://www.w3.org/1999/xlink" width="50" height="50"><defs><style type="text/css"></style></defs><path d="M681.32 292.5c32.87 0 59.59 26.73 59.59 59.59s-26.73 59.59-59.59 59.59c-32.87 0-59.59-26.73-59.59-59.59s26.72-59.59 59.59-59.59zM886.2 110.27H138.66c-40.36 0-73.23 32.51-73.23 72.42V665.7c0 40.27 32.87 72.96 73.23 72.96h104.29c9.57 0 18.6-4.15 24.74-11.47l155.3-223.23 63.11 84.51c6.05 8.13 15.53 12.91 25.55 13.09 10.38 0 19.77-4.51 25.91-12.28l103.57-130.65c12.46 4.7 26 7.31 40.18 7.31 62.75 0 113.77-51.02 113.77-113.77 0-62.75-51.02-113.77-113.77-113.77s-113.77 51.02-113.77 113.77c0 25.01 8.13 48.22 21.94 67l-76.57 96.52-62.21-83.34c-5.96-7.95-15.17-12.73-25.01-13-9.93-0.27-19.41 3.88-25.82 11.47L227.96 673.65h-89.21c-4.51 0-8.22-3.61-8.22-7.95V182.68c0-4.15 3.61-7.4 8.22-7.4H886.2c4.6 0 8.13 3.25 8.13 7.4V665.7c0 4.33-3.7 7.95-8.13 7.95H511.48v0.09c-0.63 0-1.17-0.09-1.81-0.09-17.97 0-32.51 14.54-32.51 32.51v142.66H221.64c-17.97 0-32.51 14.54-32.51 32.51s14.54 32.51 32.51 32.51h581.49c17.97 0 32.51-14.54 32.51-32.51s-14.54-32.51-32.51-32.51H542.18V738.66H886.2c40.36 0 73.14-32.78 73.14-72.96V182.68c-0.01-39.91-32.87-72.41-73.14-72.41z" p-id="2184"></path></svg>