<?xml version="1.0" standalone="no"?><!DOCTYPE svg PUBLIC "-//W3C//DTD SVG 1.1//EN" "http://www.w3.org/Graphics/SVG/1.1/DTD/svg11.dtd"><svg t="1598852282686" class="icon" viewBox="0 0 1024 1024" version="1.1" xmlns="http://www.w3.org/2000/svg" p-id="2043" xmlns:xlink="http://www.w3.org/1999/xlink" width="50" height="50"><defs><style type="text/css"></style></defs><path d="M640.8 333.94c8.81 12.68 7.31 29.84-3.58 40.79l-4.48 3.71-161.12 111.7L633 604.01a31.973 31.973 0 0 1 13.52 24.75c0.43 9.9-3.76 19.44-11.34 25.82l-4.67 3.26-198.72 114.45c-14.36 8.37-32.74 4.34-42.28-9.27s-7.06-32.26 5.71-42.9l4.73-3.26 155.24-89.51-157.74-111.26a31.952 31.952 0 0 1-13.43-23.29 31.959 31.959 0 0 1 9.09-25.3l4.54-3.84L596.3 325.95a31.95 31.95 0 0 1 23.92-5.19 31.959 31.959 0 0 1 20.58 13.25v-0.07zM511.77 128.38c-153.63 0-280.16 120.7-287.39 274.16l-0.32 13.55v479.52h575.43V416.1c0-158.9-128.82-287.72-287.72-287.72z m0-63.93c188.73-0.02 343.81 148.95 351.4 337.52l0.26 14.13v479.52h63.94c11.42 0 21.98 6.09 27.69 15.98 5.71 9.89 5.71 22.08 0 31.97s-16.27 15.98-27.69 15.98H96.19c-11.42 0-21.98-6.09-27.69-15.98a31.974 31.974 0 0 1 0-31.97 31.975 31.975 0 0 1 27.69-15.98h63.94V416.1c-0.01-194.21 157.43-351.65 351.64-351.65z" p-id="2044"></path></svg>